<svg width="1600" height="900" viewBox="0 0 1600 900" fill="none" xmlns="http://www.w3.org/2000/svg">
  <defs>
    <linearGradient id="bg2" x1="0" y1="0" x2="1600" y2="900" gradientUnits="userSpaceOnUse">
      <stop stop-color="#05070E"/>
      <stop offset="0.5" stop-color="#0E1426"/>
      <stop offset="1" stop-color="#121224"/>
    </linearGradient>
    <linearGradient id="brand2" x1="120" y1="220" x2="860" y2="610" gradientUnits="userSpaceOnUse">
      <stop stop-color="#2EE6BE"/>
      <stop offset="1" stop-color="#3D7BFF"/>
    </linearGradient>
  </defs>

  <rect width="1600" height="900" fill="url(#bg2)"/>
  <rect x="84" y="84" width="1432" height="732" rx="32" fill="#0B1325" fill-opacity="0.83" stroke="#2B3958"/>

  <image href="../../../homepage/public/logo2.png" x="124" y="120" width="58" height="58"/>
  <text x="196" y="158" fill="#E5EEFF" font-family="Inter,Segoe UI,Arial,sans-serif" font-size="32" font-weight="700">Blocnet Closed Alpha</text>

  <text x="124" y="276" fill="#F2F6FF" font-family="Inter,Segoe UI,Arial,sans-serif" font-size="96" font-weight="900">EARLY ACCESS</text>
  <text x="124" y="362" fill="url(#brand2)" font-family="Inter,Segoe UI,Arial,sans-serif" font-size="96" font-weight="900">STARTS NOW</text>

  <text x="124" y="436" fill="#C3D0EA" font-family="Inter,Segoe UI,Arial,sans-serif" font-size="34" font-weight="500">Join the first cohort of users testing Blocnet features</text>
  <text x="124" y="480" fill="#C3D0EA" font-family="Inter,Segoe UI,Arial,sans-serif" font-size="34" font-weight="500">before beta release.</text>

  <rect x="124" y="530" width="704" height="106" rx="22" fill="url(#brand2)"/>
  <text x="476" y="596" text-anchor="middle" fill="#050B17" font-family="Inter,Segoe UI,Arial,sans-serif" font-size="50" font-weight="900">Submit email at blocnet.app</text>

  <rect x="124" y="664" width="704" height="118" rx="20" fill="#0F1A34" stroke="#2B4979"/>
  <text x="160" y="710" fill="#38E9C3" font-family="Inter,Segoe UI,Arial,sans-serif" font-size="30" font-weight="800">How to join</text>
  <text x="160" y="748" fill="#CBD9F5" font-family="Inter,Segoe UI,Arial,sans-serif" font-size="24" font-weight="600">1) Submit your email  2) Get allowlisted  3) Install and test</text>

  <g>
    <rect x="868" y="138" width="654" height="636" rx="30" fill="#081124" stroke="#2E4A7A"/>

    <rect x="902" y="224" width="206" height="436" rx="30" fill="#060C17" stroke="#355B92" stroke-width="2"/>
    <rect x="987" y="238" width="36" height="7" rx="3.5" fill="#213862"/>
    <rect x="920" y="266" width="170" height="86" rx="14" fill="#101D37" stroke="#2D4A76"/>
    <rect x="938" y="286" width="112" height="10" rx="5" fill="#36E8C2"/>
    <rect x="938" y="304" width="136" height="8" rx="4" fill="#8FA8D0"/>
    <rect x="920" y="372" width="170" height="268" rx="14" fill="#0D1830" stroke="#2B446F"/>
    <rect x="938" y="396" width="134" height="9" rx="4.5" fill="#A3B8DC"/>
    <rect x="938" y="416" width="96" height="9" rx="4.5" fill="#3B79FE"/>
    <rect x="938" y="436" width="124" height="9" rx="4.5" fill="#8FA8D0"/>

    <rect x="1102" y="176" width="221" height="472" rx="34" fill="#060C17" stroke="#3A619D" stroke-width="2"/>
    <rect x="1196" y="192" width="32" height="7" rx="3.5" fill="#213862"/>
    <rect x="1124" y="220" width="177" height="126" rx="16" fill="#112140" stroke="#2C4D7D"/>
    <circle cx="1212" cy="283" r="42" fill="#17356A"/>
    <path d="M1205 286L1212 293L1226 272" stroke="#2EE6BE" stroke-width="4.2" stroke-linecap="round" stroke-linejoin="round"/>
    <rect x="1124" y="364" width="177" height="262" rx="16" fill="#0D1931" stroke="#2A436F"/>
    <rect x="1144" y="392" width="137" height="10" rx="5" fill="#A7BCE0"/>
    <rect x="1144" y="414" width="112" height="10" rx="5" fill="#3D7BFF"/>
    <rect x="1144" y="436" width="128" height="10" rx="5" fill="#8FA8D0"/>
    <rect x="1144" y="458" width="120" height="10" rx="5" fill="#8FA8D0"/>

    <rect x="1320" y="232" width="196" height="424" rx="30" fill="#060C17" stroke="#355B92" stroke-width="2"/>
    <rect x="1400" y="246" width="36" height="7" rx="3.5" fill="#213862"/>
    <rect x="1338" y="274" width="160" height="96" rx="14" fill="#122342" stroke="#2C4A79"/>
    <rect x="1356" y="298" width="124" height="10" rx="5" fill="#3A79FF"/>
    <rect x="1356" y="318" width="96" height="8" rx="4" fill="#93ABD2"/>
    <rect x="1338" y="388" width="160" height="244" rx="14" fill="#0D1830" stroke="#2B446F"/>
    <rect x="1356" y="416" width="124" height="9" rx="4.5" fill="#A6BCDF"/>
    <rect x="1356" y="436" width="88" height="9" rx="4.5" fill="#39E9C3"/>
    <rect x="1356" y="456" width="118" height="9" rx="4.5" fill="#8FA8D0"/>
  </g>

  <text x="1482" y="852" text-anchor="end" fill="#6C85B6" font-family="Inter,Segoe UI,Arial,sans-serif" font-size="22" font-weight="700">blocnet.app</text>
</svg>
