<svg width="20" height="20" viewBox="0 0 20 20" fill="none" xmlns="http://www.w3.org/2000/svg">
<path fill-rule="evenodd" clip-rule="evenodd" d="M9.16602 1.66666C5.02388 1.66666 1.66602 5.02452 1.66602 9.16666C1.66602 13.3088 5.02388 16.6667 9.16602 16.6667C10.9369 16.6667 12.5644 16.0529 13.8474 15.0266L16.9101 18.0892C17.2355 18.4147 17.7632 18.4147 18.0886 18.0892C18.414 17.7638 18.414 17.2362 18.0886 16.9107L15.0259 13.8481C16.0523 12.565 16.666 10.9375 16.666 9.16666C16.666 5.02452 13.3082 1.66666 9.16602 1.66666ZM3.33268 9.16666C3.33268 5.945 5.94436 3.33332 9.16602 3.33332C12.3877 3.33332 14.9993 5.945 14.9993 9.16666C14.9993 12.3883 12.3877 15 9.16602 15C5.94436 15 3.33268 12.3883 3.33268 9.16666Z" fill="#737373"/>
</svg>
